<svg version="1.0" xmlns="http://www.w3.org/2000/svg" width="508" height="55" fill="#ffffff" viewBox="252 138 508 55">
  <path d="M412.7 139.1c-9.3 2.2-16.8 8.3-21.4 17.2-2.2 4.3-2.7 6.5-2.7 13.3-.1 7.2.2 8.5 2.9 13 4 6.5 11.3 10.4 19.5 10.4 6.8 0 11-1.3 16.9-5.3 4.3-2.9 4.3-2.9 2.3-4.9-1.9-2-2-2-5.9.6-10.4 6.9-23.6 4.1-27.9-6.1-3.3-7.8-.4-20.3 6.2-26.5 3.8-3.5 11-6.8 15.2-6.8 3.9 0 10.1 2.7 10.9 4.7.7 1.7 1.8 1.7 4.8-.3 2.3-1.5 2.3-1.7.9-3.9-2.9-4.4-14.3-7.3-21.7-5.4zM633.9 139.6c-8.3 2.5-14.3 11.7-12.5 19 1 3.8 4.8 6.9 11.9 9.5 10.7 3.9 12.1 5.5 10.5 11.6-1.5 5.8-9.5 9.1-16.3 6.7-2.1-.7-4.2-2-4.7-2.8-1.1-2-1.8-2-4.6.4-1.9 1.5-2.1 2.3-1.3 3.8 2.5 4.6 15.5 6.7 22.9 3.7 7.3-3.1 11.2-8.6 11.2-15.9 0-6-2.6-8.8-11.9-12.6-8.9-3.6-11.1-5.4-11.1-8.9 0-8.1 12.3-13.1 18.7-7.7l2.8 2.4 2.8-2.2 2.7-2.2-2.4-2.3c-2.3-2.2-8.1-4.1-12.1-4-1.1 0-4.1.7-6.6 1.5zM256.1 163.7c-1.8 13.1-3.5 24.8-3.8 26.1-.5 2.1-.3 2.3 2.8 2l3.3-.3 2.9-21.3c1.7-11.7 3.2-21 3.5-20.7.3.3 5.8 9.9 12.2 21.3l11.5 20.7 4.1.3 4.1.3 3.2-23.8c1.8-13.1 3.5-24.8 3.8-26.1.5-2.1.3-2.3-2.8-2l-3.3.3-2.8 20c-1.5 11-2.9 20.6-3 21.4-.2.7-5.7-8.4-12.3-20.3l-12-21.6h-8.2l-3.2 23.7zM316 140.7c0 .5-1.6 12-3.5 25.8-1.9 13.7-3.5 25.1-3.5 25.2 0 .2 1.3.3 3 .3 2.3 0 3.1-.5 3.4-2.3.8-3.7 6.6-46.1 6.6-48 0-1.2-.8-1.7-3-1.7-1.6 0-3 .3-3 .7zM328.8 142.5l-.5 2.5h8.3c8.1 0 8.4.1 8.4 2.3 0 2-4.3 34-5.5 41.4-.6 3.1-.4 3.3 2.4 3.3 3.7 0 3.3 1.5 6.6-23.5 1.4-10.5 2.8-20 3.1-21.3.4-2.1.9-2.2 8.8-2.2 8.4 0 9.6-.5 9.6-4.1 0-.5-8.7-.9-20.4-.9h-20.4l-.4 2.5zM373.2 163.7c-1.8 13.1-3.5 24.8-3.8 26-.4 2 0 2.3 2.6 2.3 1.7 0 3.2-.6 3.5-1.3.2-.6 1.9-12.3 3.8-26l3.3-24.7h-6.2l-3.2 23.7zM460.5 142.2c.5 2.5 7.5 48.2 7.5 49.3 0 .3 1.6.5 3.6.3l3.5-.3 9.2-21.3c5.1-11.6 9.5-21.2 9.8-21.2.3 0 1.6 7.1 2.8 15.7 4.2 28.6 3.8 27.3 7.6 27.3h3.3l10.7-24.8c5.9-13.6 11-25.3 11.2-26 .4-1-.3-1.3-2.8-1-3.3.3-3.3.3-11.5 19.7-4.4 10.7-8.5 20.1-9 20.9-.7 1-1.7-3.1-3.2-13.4-1.3-8.2-2.8-17.7-3.4-21.2l-1-6.3-3.6.3-3.7.3-9 20.7c-4.9 11.4-9.3 20.4-9.6 20-.4-.4-1.6-8.6-2.8-18.2-3-24.5-2.6-23-6.7-23-3 0-3.4.3-2.9 2.2zM536.9 140.2c-.1.2-1.8 11.9-3.8 26l-3.7 25.8H564v-6H536.3l.8-5.8c.5-3.1 1.1-7.2 1.4-9l.6-3.2h12.4c10.1 0 12.5-.3 12.5-1.4 0-.8.3-2.1.6-3 .5-1.4-.9-1.6-12-1.6-7.4 0-12.6-.4-12.6-1 0-.5.5-4.3 1.1-8.5l1.1-7.5h26.6l.4-2.5.5-2.5h-16.3c-9 0-16.5.1-16.5.2zM579.5 142.2c-.7 3.4-6.5 46.1-6.5 48.2 0 1.7 1 1.8 12.3 1.4 10.1-.4 12.9-.8 16.5-2.7 4.4-2.3 7.7-6.5 8.7-11.3.9-4-2.2-9.9-6.3-12-2.9-1.4-3.1-1.7-1.4-2.2 5.9-1.9 10.1-11.5 7.7-17.3-2-4.8-6.6-6.3-19.4-6.3-10.7 0-11.1.1-11.6 2.2zm21.6 4.3c2.7 1 4.3 4.9 3.2 8.1-1.6 4.8-5.5 6.8-13.9 7.2-4 .2-7.4 0-7.4-.4 0-1.7 2.1-13.9 2.6-15.3.3-1.1 1.9-1.3 7.2-.8 3.7.3 7.4.8 8.3 1.2zm.4 24c4.5 4.5 2.5 11.3-4.1 14.1-1.8.8-6.6 1.4-10.5 1.4h-7.2l.7-6.3c1.5-12.6.7-11.7 10.3-11.7 7.6 0 8.6.2 10.8 2.5zM666 140.3c0 .1-1.6 11.5-3.5 25.2-1.9 13.8-3.5 25.3-3.5 25.7 0 .7 6 1.2 6 .5 0-.1 1.6-11.2 3.5-24.7s3.5-25.1 3.5-25.8c0-.7-1.3-1.2-3-1.2-1.6 0-3 .1-3 .3zM679 140.9c0 .5-.3 1.6-.6 2.5-.5 1.4.6 1.6 8 1.6 7.5 0 8.6.2 8.6 1.8 0 .9-1.3 11.4-3 23.2-1.6 11.8-3 21.6-3 21.7 0 .4 6 .4 6 0 .1-.1 1.6-10.6 3.4-23.2l3.2-23 8.7-.3c4.8-.1 8.7-.7 8.7-1.2 0-.4.3-1.5.6-2.4.5-1.4-1.6-1.6-20-1.6-11.8 0-20.6.4-20.6.9zM723.1 163.2c-1.7 12.8-3.4 24.5-3.7 26l-.6 2.8h17c14.6 0 17.1-.2 17.6-1.6 1.6-4.3 1.3-4.4-13.4-4.4h-14l.6-3.8c.3-2 .8-6 1.2-8.7l.7-5 12.5-.5 12.5-.5.3-2.8.3-2.7h-24.4l.7-7.1c.4-3.9 1-7.7 1.3-8.5.4-1.1 3.4-1.4 13.9-1.4H759v-5h-32.7l-3.2 23.2z"/>
</svg>
