<svg version="1.0" xmlns="http://www.w3.org/2000/svg" width="920" height="90" fill="#ffffff" viewBox="44 112 920 90">
  <path d="M70.2 113.6c-7 1.9-10 3.5-14.4 8.1-9 9.2-9.1 24.1-.3 32.9 3 2.9 6.2 4.8 12 6.9 18.3 6.5 20.5 8 20.5 14.1 0 4.8-4.7 8.4-11 8.4-5.5 0-8.5-1.1-14.9-5.3l-4.3-3-6.6 6.6-6.6 6.6 2.5 2.1c11.5 9.8 32.9 12.9 46.2 6.6 14.8-7 20.3-25.3 11.4-38-3-4.2-9.8-8.1-20.3-11.6C73 144.2 70 142 70 137.7c0-3.7.6-4.7 4-7 4.8-3.3 16.9-1.1 20.9 3.7 1.3 1.6 2 1.2 7.8-4.6 3.5-3.4 6.3-6.7 6.3-7.3 0-1.8-8.2-6.5-14.9-8.5-7.4-2.3-16.3-2.5-23.9-.4zM357 113.5c-18.1 5.2-29.4 17.7-32.2 35.7-3.5 23.3 10.1 44.4 32.7 50.4 11.1 3 25.8 1.3 36.7-4.2 15.7-7.9 25.1-28.2 21.8-47.2-2.9-17.2-14.1-29.4-31.9-34.6-6.5-1.9-20.7-2-27.1-.1zm25 19.8c8.3 4.2 14.1 16.8 12.5 27-2.2 13.3-11.6 21.8-24.1 21.8-6.7 0-8.9-.6-14.2-4.4-12.6-9.1-13.2-32.1-1-42 7.3-5.9 17.8-6.8 26.8-2.4zM447.3 113.5c-13.1 3.6-20.4 12.3-20.5 24.5-.2 12 5.2 18.6 19.3 23.9 16.8 6.2 20.8 9.5 19.3 15.6-2.1 8.4-18.7 8.4-27.5-.1l-2.6-2.5-6.2 6.7c-3.4 3.6-6 7.1-5.8 7.7.7 2.1 10 7.7 15.6 9.5 3.8 1.1 8.8 1.7 15.6 1.7 12.4-.1 18.4-2.4 24.8-9.5 4.9-5.5 6.7-10.3 6.7-18.4 0-11.2-6.1-18-21.1-23.5-12.2-4.5-16.5-6.6-17.3-8.6-2.1-5.6 1.6-10.4 8.7-11.2 5.3-.6 10.7 1 14.7 4.3l2.9 2.5 6.5-6.8c4.1-4.4 6.1-7.2 5.5-7.9-1.6-2-11-6.6-16.3-8-6.5-1.7-15.6-1.7-22.3.1zM861.4 114.6c-4.4 1.6-11.7 7.3-13.5 10.5-.9 1.7-.5 2.2 3.2 3.7l4.3 1.8 3.7-3.7c7-7 18.9-7.5 24-1.1 1.7 2.2 2 3.7 1.7 8.5-.7 9.6-6.1 14.5-17.1 15.4-6.8.7-7.7 1.3-7.7 6 0 3.3.1 3.3 4.8 3.3 5.3 0 11.7 2.6 14.7 6 3.2 3.5 2.7 12.5-.9 18-3.9 5.9-11.8 9.5-19 8.6-6.3-.7-9.6-3.1-11.6-8.3l-1.5-3.9-4.4 1.3c-2.5.7-4.8 1.6-5.3 2.1-.4.4.4 3.1 1.8 6 3.7 7.4 9 10.4 19.4 11 9.8.6 16.6-1 22.5-5.2 5.9-4.2 9.2-8.8 11.1-15.3 2.9-9.9-.3-18.6-8.3-22.9l-4.2-2.2 4.9-3c8.6-5.3 13.3-16.1 10.8-24.8-1.3-5-7.3-10.9-12.3-12.3-5.5-1.5-16.1-1.2-21.1.5zM929.9 114.6c-5.9 1.8-13.1 8.1-15.9 14-1.2 2.5-2.1 4.6-1.9 4.8.2.2 2.5.6 5.1.9 4.7.6 4.9.6 7.2-3.1 4.8-7.6 11.3-10.9 18.7-9.7 12.1 2.1 14.3 15.1 4.5 26.2-2.2 2.6-13.2 12.5-24.4 22-11.2 9.6-20.5 18-20.7 18.6-.2.7-.6 3.3-1 5.9l-.6 4.8H956v-2.9c0-1.6.3-3.6.6-4.5.5-1.4-1.9-1.6-21.2-1.8l-21.8-.3 17.5-14.6c28-23.4 32.4-29.2 32.4-42.5 0-8.8-2.6-13.2-9.9-16.9-5.8-2.9-16-3.3-23.7-.9zM121 156.5V199h21v-36h33v36h21v-85h-21v32h-33v-32h-21v42.5zM212 156.5V199h21v-85h-21v42.5z"/><path d="M249 156.5V199h20l.2-19.4.3-19.5 15.5 19.4 15.5 19.4h13.4c12.6.1 13.3 0 12-1.7-1.2-1.5-31.5-37.6-35.7-42.4-1.5-1.8-1.1-2.3 31.2-36.6l4-4.2h-12.9l-13 .1-15 17.2-15 17.1-.3-17.2-.2-17.2h-20v42.5zM523.1 116.2c-.5 1.3-8.2 19.6-17.1 40.8-8.9 21.2-16.5 39.3-16.7 40.2-.5 1.6.5 1.8 10.5 1.8h11l3-8.3 3-8.2 16.4-.3 16.5-.2 3.3 8.5 3.3 8.5h11.3c6.3 0 11.4-.1 11.4-.3 0-.1-7.8-19.1-17.4-42.2l-17.5-42-10-.3c-9.7-.3-10.2-.2-11 2zm15.9 35.2c2.7 7.6 5 14 5 14.2 0 .2-4.8.4-10.6.4-8.1 0-10.5-.3-10.1-1.3.2-.6 2.6-7.1 5.3-14.4 2.6-7.3 4.9-13.1 5.1-13 .1.2 2.5 6.5 5.3 14.1zM585 156.5V199h21v-85h-21v42.5zM651.7 155.2c-3.2 22.7-5.7 41.9-5.7 42.5 0 .9 1.6 1.3 4.8 1.3h4.8l4.2-30.3c2.3-16.6 4.5-32.4 4.9-35 .3-2.6.9-4.4 1.4-4 .4.4 9.3 16.1 19.7 34.8l19 34 6.6.3c3.6.2 6.6-.1 6.6-.5 0-.9 10.7-78.3 11.4-82.1.3-2.2.1-2.3-4.8-2l-5 .3-4.2 29c-2.3 15.9-4.4 31.6-4.8 34.8-.4 3.2-1.1 5.6-1.4 5.2-.4-.3-9.3-16-19.7-34.8l-19.1-34.2-6.5-.3-6.5-.3-5.7 41.3zM765.5 142.1c-14.6 1.9-26 13.3-28.5 28.3-1.6 10.1.9 17.8 8 23.8 4.8 4.2 9.8 5.8 17.7 5.8 12.5 0 23.5-6.1 29.3-16.3 13-22.8-1.2-45.1-26.5-41.6zm12.1 9.8c7.8 3.5 10.9 12.5 7.9 22.7-4.3 14.9-21.9 22-32.9 13.3-4-3.1-5.6-7.1-5.6-13.7 0-10.2 4.6-17.7 13.5-21.8 6-2.9 11.6-3 17.1-.5zM812.9 186.1c-5.6 2-6.6 10.3-1.6 12.7 2.2 1.1 3.2 1.1 5.4 0 5.9-2.8 6.9-10.3 1.8-12.6-1.4-.7-2.7-1.2-2.8-1.1-.1 0-1.4.5-2.8 1z"/>
</svg>
