<svg version="1.0" xmlns="http://www.w3.org/2000/svg" width="648" height="87" fill="#ffffff" viewBox="189 120 648 87">
  <path d="M190 130v9h24v67h20v-67h24v-18h-68v9zM266 163.5V206h21v-85h-21v42.5zM303 163.5V206h19.5l-.2-30.2c-.1-16.7 0-29.9.2-29.3.3.5 5.2 14 10.9 30l10.4 29 7.3.3 7.4.2 10.9-30c6-16.5 11.1-30 11.4-30 .2 0 .1 13.5-.3 30l-.7 30H400v-85.1l-14.7.3-14.8.3-9 26.7c-4.9 14.8-9.2 26.8-9.5 26.8-.3 0-4.8-12.1-10-27l-9.5-27H303v42.5zM417 163.5V206h59.1l-.3-8.7-.3-8.8-19.7-.3-19.8-.2v-17h36.1l-.3-8.3-.3-8.2-17.8-.3-17.8-.2.3-7.8.3-7.7 18.8-.3 18.7-.2v-17h-57v42.5zM480.2 129.7l.3 8.8 11.8.3 11.7.3V206h21v-66.9l11.8-.3 11.7-.3.3-8.8.3-8.7h-69.2l.3 8.7zM574.7 121.7c-.3.5-8.2 19.2-17.7 41.8-9.5 22.5-17.4 41.3-17.7 41.7-.2.5 4.7.8 10.9.8h11.3l3.1-8.3 3.1-8.2h32.8l3.4 8.2 3.4 8.3H630l-1.6-3.8c-.8-2-8.8-21.1-17.6-42.5L594.7 121h-9.8c-5.4 0-10 .3-10.2.7zm16.2 40 4 11.3h-10.4c-5.8 0-10.5-.3-10.5-.7 0-.3 2.3-6.9 5.2-14.6l5.2-13.9 1.2 3.3c.7 1.9 3 8.5 5.3 14.6zM636 163.5V206h19.5c21.1 0 27.5-.9 34.8-4.8 16.7-9 15.5-32.7-2.1-38.7l-3.4-1.2 4.2-2.4c7.7-4.3 10.7-11 8.9-20.2-1.1-6.1-3.9-10-9.2-13.1-6.4-3.7-13.1-4.6-33.7-4.6h-19v42.5zm38.3-24.6c4 1.6 5.3 5.2 3.6 9.8-1.8 4.7-5.5 6.2-15.1 6.2l-6.8.1V136.7l7.8.6c4.3.3 9 1.1 10.5 1.6zm1.6 32.7c6.4 2.5 7.6 9.7 2.4 14.6-2.2 2-3.6 2.3-12.4 2.6l-9.9.4V170h8c4.9 0 9.5.6 11.9 1.6zM714 163.5V206h54v-18h-33v-67h-21v42.5zM776 163.5V206h60.1l-.3-8.8-.3-8.7-19.7-.3-19.8-.2v-17h35v-17h-35.1l.3-7.8.3-7.7 18.8-.3 18.8-.2-.3-8.3-.3-8.2-28.7-.3-28.8-.2v42.5z"/>
</svg>
