<svg version="1.0" xmlns="http://www.w3.org/2000/svg" width="457" height="89" fill="#000000" viewBox="286 117 457 89">
  <path d="M410 118.5c-12.8 3.6-22.8 11.4-27.9 21.6-9.9 19.9-5 43.5 11.9 56.8 7.4 5.8 14.7 8.3 26.1 8.9 13.9.6 25-3.1 32.4-10.8l3-3.1-7-6.4-7-6.3-3 2.6c-9 7.6-23.5 6.9-31.9-1.4-9.5-9.4-9.5-28.4 0-37.7 8.4-8.4 22.1-9.5 30.7-2.5l3.9 3.1 6.7-6.7c7.6-7.6 7.6-8.2-.7-13.2-9.7-5.9-26.3-8.1-37.2-4.9zM489.5 118.9c-8.4 2.4-12.1 4.6-18.6 10.8-8.1 7.7-12 16.6-12.7 28.8-.7 14 2.8 24.4 11.6 33.7 5.5 5.9 11.1 9.4 19.3 11.9 7.6 2.4 20.5 2.5 27.9.3 5.8-1.7 14.3-6.7 17.4-10.3l2-2.1-6.9-6.4-6.9-6.3-4.3 3.3c-7.4 5.7-18.6 6-27 .8-14.1-8.8-14.6-33.9-.8-43.4 8.4-5.8 20.4-5.8 27.6-.1l3.6 3 6.8-6.9c7.7-7.8 7.7-8-.3-12.7-10.3-6.1-26.6-7.9-38.7-4.4zM634.2 118.6c-6.8 1.8-8.5 2.8-13.8 7.6-7.4 6.8-9.4 18-5 27.4 3.1 6.7 7.3 9.8 19.1 14 11.9 4.2 15.2 5.9 16.5 8.3 3.5 6.6-1.5 13.1-10 13.1-5.6 0-8.7-1.1-14.8-5.4l-4.3-3-6.6 6.6-6.7 6.7 2.5 2.1c11.5 9.8 32.9 12.9 46.2 6.6 15.3-7.3 20.6-26.3 10.7-38.9-3-3.8-8.9-7-20.4-11.1-11.4-4-13.6-5.7-13.6-10 0-3.6.6-4.6 4-6.9 4.8-3.3 16.9-1.1 20.9 3.7 1.3 1.6 2 1.2 7.8-4.6 3.5-3.4 6.3-6.7 6.3-7.3 0-1.8-8.2-6.5-14.9-8.5-7.4-2.3-16.3-2.5-23.9-.4zM704.7 118.1c-13.3 3.1-21.7 13-21.7 25.3.1 13.6 6.2 19.6 27.2 26.5 11 3.6 14.7 9.6 9.5 15.6-4.3 5.1-14.3 4.6-22.8-1.1l-5.3-3.5-6.5 6.6-6.6 6.6 2.5 2c7.3 5.8 19.4 9.9 29.5 9.9 9.9 0 20.7-4.1 25.7-9.7 3.6-4 6.2-11.6 6.2-18.3 0-12.3-5.9-18.4-24.2-25-12-4.4-15.8-7.4-14.7-11.9 1.2-5.1 3.9-6.6 11.4-6.6 6.2 0 7.4.3 11.5 3.2l4.5 3.2 6-6.7c6.8-7.6 6.7-8.3-1.5-12.3-9.5-4.5-21.3-6-30.7-3.8zM321.1 121.2c-.5 1.3-8.4 20-17.5 41.7-9.1 21.7-16.6 39.8-16.6 40.3 0 .4 4.9.8 10.9.8h10.8l3-8.3 3-8.2 16.5-.3 16.5-.2 3.3 8.5 3.3 8.5h11.5c8.7 0 11.3-.3 10.9-1.3-6.8-16.3-31.4-75.5-32.9-79l-2-4.7h-9.9c-9.4 0-10 .1-10.8 2.2zm15.8 35.3c2.8 7.6 5.1 14.1 5.1 14.2 0 .2-4.8.3-10.6.3-8.1 0-10.5-.3-10.2-1.3 2.7-7.5 10.3-27.6 10.4-27.4.1.1 2.5 6.5 5.3 14.2zM544 161.5V204h59v-18h-39v-17h35v-17h-35v-16h37v-17h-57v42.5z"/>
</svg>
