<svg version="1.0" xmlns="http://www.w3.org/2000/svg" width="406" height="90" fill="#000000" viewBox="307 113 406 90">
  <path d="M338.5 114.9c-8.4 2.4-12.1 4.6-18.6 10.8-8.1 7.7-12 16.6-12.7 28.8-.7 14 2.8 24.4 11.6 33.7 5.5 5.9 11.1 9.4 19.3 11.9 7.6 2.4 20.5 2.5 27.9.3 5.8-1.7 14.3-6.7 17.4-10.3l2-2.1-6.9-6.4-6.9-6.3-4.3 3.3c-7.4 5.7-18.6 6-27 .8-14.1-8.8-14.6-33.9-.8-43.4 8.4-5.8 20.4-5.8 27.6-.1l3.6 3 6.8-6.9c7.7-7.8 7.7-8-.3-12.7-10.3-6.1-26.6-7.9-38.7-4.4zM536.5 114.9c-8.6 2.5-13.7 5.4-19.4 11.1-6.4 6.4-10.9 15.5-12 24.5-2.6 21.1 6.7 38.7 24.8 47.4 7.5 3.5 7.8 3.6 20.1 3.6 12.1 0 12.8-.1 19.1-3.2 3.5-1.8 8.2-4.7 10.2-6.5l3.8-3.3-7-7-7.1-6.9-2.7 2.6c-5.2 4.8-8.9 6-16.9 5.6-6.1-.3-7.9-.8-11.6-3.3-6.4-4.6-10-11-10.5-19.2-.6-8.4.8-14 5-19.5 4.4-5.7 11-9 18.4-9.1 6.2 0 13.7 2.6 16.2 5.7 1.3 1.6 2 1.2 8.3-5.1 3.7-3.7 6.8-7.1 6.8-7.5 0-1.8-11.5-8.2-17.7-9.9-8.4-2.4-19.8-2.4-27.8 0zM393 157.5V200h21v-85h-21v42.5zM430 157.4V200h20v-34.1l3.6.3c3.6.3 3.7.5 12.8 17l9.1 16.8h11.8c6.4 0 11.7-.2 11.7-.4 0-.3-4.7-8.2-10.5-17.6-5.8-9.5-10.5-17.6-10.5-18 0-.4 1.8-1.5 4.1-2.5 18.4-8.3 16.5-36-2.9-43.6-5.1-2.1-7.8-2.3-27.4-2.7l-21.8-.4v42.6zm39.9-23.6c5.7 2.8 6.4 9.7 1.5 14.3-2.1 2-3.8 2.4-11.9 2.7l-9.5.4V132h8.3c5.8 0 9.2.5 11.6 1.8zM591 157.5V200h53v-18h-33v-67h-20v42.5zM653 157.5V200h59.1l-.3-8.7-.3-8.8-19.7-.3-19.8-.2v-17h36.1l-.3-8.3-.3-8.2-17.8-.3-17.8-.2.3-7.8.3-7.7 18.8-.3 18.7-.2v-17h-57v42.5z"/>
</svg>
