<svg version="1.0" xmlns="http://www.w3.org/2000/svg" width="860" height="55" fill="#000000" viewBox="78 138 860 55">
  <path d="M101.4 139.4c-13.9 3.4-23.4 15.7-23.6 30.4-.1 15.3 10 24.1 26.2 23 14.1-1 24.9-10.9 28.1-25.8 3.9-18.3-11.7-32.3-30.7-27.6zm13.3 5.7c6.7 2.5 11.3 9.6 11.3 17.1-.2 17.4-18 30.1-32.4 23.3-9.3-4.4-12.1-17.5-6.1-28.4 1.6-2.9 4.4-6.5 6.2-7.8 6.3-4.8 14.9-6.5 21-4.2zM261.5 139.4c-10.1 2.4-19 11-22 20.9-4.2 14 .7 26.5 12.2 31.4 5.2 2.1 15 1.7 20.8-1.1 6.5-3 9.3-6 7.5-8.1-1.7-2-2.6-1.9-6.4 1-1.8 1.4-5.3 2.9-7.7 3.3-10.3 1.9-18.8-3.2-20.7-12.5-4.3-20.1 18.9-38.8 32.5-26.1 2.2 2.1 2.2 2.1 5.3.1l3.1-2-3.5-3c-2.1-1.9-5.4-3.5-8.6-4.2-6-1.3-6-1.3-12.5.3zM431 139.1c-8 2.4-13.1 8.8-13.3 16.6 0 6 3.3 9.3 12.9 12.8 8.5 3.1 11 5.7 9.9 10.3-1.7 8.1-14.5 11.3-20.9 5.3l-2.3-2.1-2.7 2.1-2.7 2.1 2.2 2.4c3.1 3.3 8.1 4.7 14.8 4.2 11.4-.9 18.5-7.3 18.5-16.9 0-6.4-2.4-8.8-12.9-13.2-9.9-4.1-11.8-6.6-9.2-12.2 1.8-3.8 6.4-6.5 11.2-6.5 3.1 0 8.5 2.6 8.5 4.1 0 .6 1.3.1 3-1.1 1.8-1.3 2.7-2.6 2.3-3.6-1.4-3.7-12.7-6.2-19.3-4.3zM529.3 139c-8.5 2-13.4 7.3-14.1 15.3-.6 7 1.7 9.7 11.8 13.8 4.1 1.6 8.3 3.7 9.2 4.6 2.6 2.4 2.2 6.8-.9 10.3-4.6 5.1-14 5.7-18.6 1.2l-2-2.1-2.9 2.1c-2.8 2-2.9 2.1-1.1 4 5.7 6.4 21.5 6.4 28.7 0 2.4-2.1 5.5-8.9 5.6-12 0-6.3-4-10.3-14-13.7-7.4-2.6-9-4.1-9-8.3 0-4.5.6-5.4 5-8.1 4.1-2.4 8.5-2.7 12-.6 4.8 2.8 5.2 2.8 7.3.6l2.2-2.2-2.3-1.9c-4.2-3.5-10.4-4.6-16.9-3zM647.9 139.4c-6.9 1.8-13.7 6.3-17.2 11.2-8.9 12.6-8.9 27.2-.1 36.1 4.6 4.6 9.2 6.3 17 6.3 6.3 0 10.7-1.4 16.2-5.3 4.2-3.1 4.3-3.1 2.3-5.1-2-1.9-2-1.9-5.8.7-6.8 4.7-16.7 5.1-22.9 1.1-5.7-3.8-8-14.2-5.2-23.8 2.5-8.3 13.6-16.6 22.2-16.6 3.1 0 8.6 2.6 10.2 4.8 1 1.4 1.5 1.3 4.3-.5l3.2-2-3.5-3c-2.1-1.9-5.4-3.5-8.6-4.2-6.1-1.3-6.2-1.3-12.1.3zM700.3 139c-6.2 1.3-11.4 4.3-16.1 9.4-6.1 6.6-8.5 12.6-8.6 21.2-.1 9.5 3 15.6 9.9 19.9 4.4 2.7 5.6 3 13.4 3 7.5 0 9.2-.3 13.2-2.7 6.5-3.8 7.7-5.5 5.5-7.6-1.3-1.4-1.9-1.4-3.4-.4-7.1 5.2-17.2 6.8-23.1 3.8-14.5-7.5-10.7-32.4 6-39.6 6.6-2.8 12.5-2.3 17.4 1.4 3.3 2.6 3.6 2.6 6 1 3-1.9 3.1-2.6.8-4.6-4.9-4.3-13.5-6.3-21-4.8zM752.4 139c-9.7 2-17.2 7.5-21.8 16.1-2.2 4-3 7-3.4 12.6-.6 9.4 1.4 14.9 7.1 19.8 5.1 4.4 10.3 5.9 18.7 5.3 7.4-.6 13.1-3.1 19-8.4 11.4-10.3 12.9-30.7 2.8-40.1-4.9-4.6-14.7-6.9-22.4-5.3zm13 7c6.5 3.1 9.1 7.9 9.1 16.4 0 10.6-4.9 18.7-13.9 23-4.7 2.2-13.4 2.3-18.1 0-7-3.3-10.7-12.4-8.5-21.4 3.7-15.3 19-24.1 31.4-18zM142.1 163.7c-1.8 13.1-3.5 24.8-3.8 26.1-.5 2.1-.3 2.3 2.8 2l3.4-.3L146 180l1.5-11.5 12.3-.3c6.7-.1 12.2-.7 12.2-1.1 0-.5.3-1.6.6-2.5.5-1.4-.9-1.6-11.6-1.6h-12.3l.7-6.8c1.3-12.2-.1-11.2 14.6-11.2 13 0 14-.3 14-4.1 0-.5-7.1-.9-16.3-.9h-16.4l-3.2 23.7zM185.5 142.2c-.7 3.2-6.5 46-6.5 48.1 0 1.2.8 1.7 2.8 1.7 2.9 0 2.9-.1 4.1-8.8.6-4.8 1.4-10.2 1.7-12l.6-3.2H213v-5H188.7l.6-3.8c.3-2 .9-6.1 1.3-9l.7-5.2H218v-5h-16c-15.7 0-16 0-16.5 2.2zM226 140.7c0 .5-1.6 12-3.5 25.6-1.9 13.7-3.5 25.1-3.5 25.3 0 .2 1.3.4 2.9.4 2.4 0 3-.5 3.5-2.8.8-3.9 6.6-45.8 6.6-47.6 0-1.1-.9-1.6-3-1.6-1.6 0-3 .3-3 .7zM296 140.2c0 .2-1.6 11.5-3.5 25.1-1.9 13.7-3.5 25.3-3.5 25.8s1.4.9 3 .9c1.7 0 3-.1 3-.3 0-.1 1.6-11.4 3.5-25 1.9-13.7 3.5-25.3 3.5-25.8s-1.3-.9-3-.9c-1.6 0-3 .1-3 .2zM316.3 166l-15.1 26h3.6c3.5 0 3.9-.3 7.1-6.5l3.5-6.5h26.4l.6 2.7c2.6 10.5 2.4 10.3 6.1 10.3 1.9 0 3.5-.3 3.5-.7 0-.4-3.2-12.1-7.2-26l-7.2-25.3h-3.1c-3 0-3.6.8-18.2 26zm23.7 6.7c0 .2-4.8.3-10.6.3h-10.5l3.2-5.8c1.8-3.1 5-8.8 7.2-12.6l4-7 3.3 12.5c1.8 6.8 3.3 12.5 3.4 12.6zM365.6 142.7c-.7 3.7-6.6 46.2-6.6 47.9 0 1.1 3 1.4 15 1.4h15v-6h-11.5c-8.5 0-11.5-.3-11.5-1.3 0-.6 1.4-10.9 3-22.7 1.7-11.8 3-21.6 3-21.7 0-.2-1.3-.3-2.9-.3-2.4 0-3 .5-3.5 2.7zM459.1 163.7c-1.8 13.1-3.5 24.8-3.8 26.1-.5 2.1-.3 2.3 2.8 2l3.4-.3 2.9-21.3c1.6-11.7 3.1-21 3.4-20.7.3.3 5.8 9.9 12.2 21.3l11.5 20.7 4.1.3 4.1.3 3.2-23.8c1.8-13.1 3.5-24.8 3.8-26.1.4-1.9.1-2.2-2.6-2.2-3.7 0-3.2-1.5-6.6 23-1.4 10.2-2.7 18.9-2.8 19.3-.1.5-5.6-8.9-12.2-20.7l-12-21.6h-8.2l-3.2 23.7zM589.7 151.2c-3.5 6.2-10.3 18-15.1 26.1l-8.6 14.8 3.7-.3c3.5-.3 4-.8 7.2-6.6l3.5-6.2h13.3c9 0 13.3.4 13.3 1.1 0 .6.7 3.5 1.6 6.5 1.5 5.2 1.7 5.4 5.1 5.4 2.9 0 3.4-.3 3.1-1.8-.3-.9-3.6-12.6-7.4-25.9l-6.9-24.3h-3.1c-2.9 0-3.5.7-9.7 11.2zm12.1 9.8 3 12h-21l3.3-5.8c1.7-3.1 4.8-8.5 6.6-12 1.9-3.4 3.8-6.2 4.3-6.2.4 0 2.1 5.4 3.8 12zM794 141.2c0 .7-1.1 8.8-2.4 18.1-3.1 22.7-2.1 27.8 6.6 32.3 3.8 2 13.5 1.7 18.3-.5 8.8-3.9 11.5-10 14.5-31.6 1.1-8.3 2.3-16 2.6-17.3.4-2.1.2-2.3-2.8-2l-3.3.3-1.2 9c-3.8 28-5.4 33-11.5 36.1-3.9 2-11.2 2-14.4-.1-5-3.2-5.4-8.1-2.4-28 2.6-17.6 2.7-17.5-1-17.5-1.7 0-3 .5-3 1.2zM845.6 142.2c-.8 3.7-6.6 46.1-6.6 48 0 1.3.8 1.8 3 1.8 1.7 0 3-.3 3-.7 0-2.5 5.2-39.1 5.8-40.5.5-1.2 4.1 4.4 12.6 19.8l11.8 21.4h3.8c3.4 0 3.9-.3 4.4-2.8.8-3.9 6.6-45.8 6.6-47.6 0-1.1-.9-1.6-3-1.6-1.6 0-3 .3-3 .7 0 2.5-5.3 38.1-5.9 39.7-.5 1.4-3.3-2.8-12.3-19l-11.6-20.9-4.1-.3c-3.5-.3-4.1 0-4.5 2zM897 140.9c0 .5-.3 1.6-.6 2.5-.5 1.4.6 1.6 8 1.6 8.3 0 8.6.1 8.6 2.3 0 2-4.3 34-5.5 41.4-.6 3.1-.4 3.3 2.4 3.3 3.7 0 3.3 1.4 6.6-23.5 1.4-10.5 2.8-20 3.1-21.3.4-2.1.9-2.2 8.9-2.2 4.7 0 8.5-.4 8.5-.9s.3-1.6.6-2.5c.5-1.4-1.6-1.6-20-1.6-11.8 0-20.6.4-20.6.9z"/>
</svg>
