<svg version="1.0" xmlns="http://www.w3.org/2000/svg" width="470" height="90" fill="#000000" viewBox="304 113 470 90">
  <path d="M329.1 114.6c-17 4.6-25.5 20.4-18.7 34.9 3 6.6 7.7 10 19.3 14.1 11.7 4.2 15 5.9 16.3 8.3 3.5 6.6-1.5 13.1-10.1 13.1-5.3 0-12.5-2.8-15.5-6.1-.9-1-2.2-1.9-2.8-1.9-.7 0-4 2.8-7.4 6.3l-6.2 6.3 2.7 2.6c10 9.5 32.4 12.6 45.6 6.3 18-8.5 21.3-32.8 5.7-43.1-2.1-1.4-8.7-4.3-14.6-6.5-12.4-4.5-14.4-6-14.4-10.5 0-4.8 4.7-8.4 10.8-8.4 5.1 0 11.8 2.6 14.1 5.4 1.3 1.6 2 1.2 7.8-4.6 3.5-3.4 6.3-6.7 6.3-7.3 0-1.8-8.2-6.5-14.9-8.5-7.4-2.3-16.3-2.5-24-.4zM644.5 114.9c-8.4 2.4-12.1 4.6-18.6 10.8-8.1 7.7-12 16.6-12.7 28.8-.7 14 2.8 24.4 11.6 33.7 5.5 5.9 11.1 9.4 19.3 11.9 7.6 2.4 20.5 2.5 27.9.3 5.8-1.7 14.3-6.7 17.4-10.3l2-2.1-6.9-6.4-6.9-6.3-4.3 3.3c-7.4 5.7-18.6 6-27 .8-14.1-8.8-14.6-33.9-.8-43.4 8.4-5.8 20.4-5.8 27.6-.1l3.6 3 6.8-6.9c7.7-7.8 7.7-8-.3-12.7-10.3-6.1-26.6-7.9-38.7-4.4zM380 157.5V200h60.1l-.3-8.8-.3-8.7-19.7-.3-19.8-.2v-17l17.8-.2 17.7-.3v-16l-17.8-.3-17.8-.2.3-7.8.3-7.7 18.8-.3 18.7-.2v-17h-58v42.5zM460.1 156.2c-9.6 22.7-17.6 41.9-17.8 42.6-.4 1 1.9 1.2 10.7 1l11.3-.3 3-8.3 3-8.2 16.4.2 16.5.3 3.2 8 3.2 8 11.2.3c6.2.1 11.2-.1 11.2-.5s-7.8-19.5-17.3-42.3l-17.3-41.5-10-.3-10.1-.3-17.2 41.3zm32.3-3.6c2.6 7.4 4.6 13.7 4.3 14-.2.3-4.9.3-10.5.2l-10-.3 5.1-13.8c2.9-7.5 5.4-13.7 5.7-13.7.3 0 2.7 6.1 5.4 13.6zM538 157.5V200h21v-34h3.3c3.1 0 3.4.4 12.2 16.6 4.9 9.2 9.4 16.8 10 17.1.6.2 6.1.2 12.1.1l11-.3-10.8-17.5c-5.9-9.6-10.8-17.7-10.8-18 0-.4 1.5-1.1 3.3-1.8 7.7-2.8 13.6-11.9 13.7-21.1 0-7.4-1.7-12.5-5.7-16.6-7.6-7.8-14.8-9.5-40.3-9.5h-19v42.5zm40-24.2c3.9 2 5.6 5.8 4.5 10.4-1.4 5.4-5.5 7.3-16.2 7.3H558v-19h8.8c4.9 0 9.8.6 11.2 1.3zM699 157.5V200h21v-36l16.3.2 16.2.3.3 17.7.2 17.8h20v-85h-20v32h-33v-32h-21v42.5z"/>
</svg>
