<svg width="547" height="136" viewBox="0 0 547 136" fill="none" xmlns="http://www.w3.org/2000/svg">
  <path
    d="M0.999983 14.2085V65.8934C0.998406 69.4893 4.02592 73.0473 9.89705 76.3497C15.7682 79.652 24.3593 82.6291 35.1442 85.0986L236.059 131.117C246.177 133.436 259.575 134.727 273.5 134.727C287.425 134.727 300.823 133.436 310.941 131.117L511.856 85.0986C522.641 82.6291 531.232 79.652 537.103 76.3497C542.974 73.0473 546.002 69.4893 546 65.8934V14.2085C546 10.7054 540.258 7.34576 530.037 4.86868C519.817 2.3916 505.954 0.999994 491.5 0.999994L55.5 0.999994C41.0457 0.999994 27.1834 2.3916 16.9627 4.86868C6.74194 7.34576 0.999983 10.7054 0.999983 14.2085Z"
    stroke="black"
    stroke-width="2"
    stroke-linecap="round"
    stroke-linejoin="round"
  />
</svg>
